<svg xmlns="http://www.w3.org/2000/svg" xmlns:svg="http://www.w3.org/2000/svg" xmlns:xlink="http://www.w3.org/1999/xlink" id="svg4136" width="1362" height="600" version="1.1" viewBox="0 0 1362 600"><metadata id="metadata5046"/><defs id="defs4138"><symbol id="queue_symbol" fill="#80f080" stroke="#000" stroke-linecap="square" stroke-width="5"><g id="g4141" transform="scale(0.2 0.2)"><line id="line4143" x1="0" x2="0" y1="70" y2="120"/><line id="line4145" x1="100" x2="100" y1="70" y2="120"/><polyline id="polyline4147" points="0 120 0 170 100 170 100 120"/><rect id="rect4149" width="100" height="50" x="0" y="170"/><rect id="rect4151" width="100" height="50" x="0" y="220"/><rect id="rect4153" width="100" height="50" x="0" y="270"/><rect id="rect4155" width="100" height="50" x="0" y="320"/><rect id="rect4157" width="100" height="50" x="0" y="370"/><rect id="rect4159" width="100" height="50" x="0" y="420"/></g></symbol><symbol id="ArbiterLevel3"><polygon id="polygon4162" fill="#F08080" stroke="#000" points="54 0 0 0 12 29 42 29 54 0"/></symbol><symbol id="ArbiterLevel2"><polygon id="polygon4165" fill="#F0F080" stroke="#000" points="116 0 0 0 24 36 92 36 116 0"/></symbol><symbol id="ArbiterLevel1"><polygon id="polygon4168" fill="#E080E0" stroke="#000" points="101 9 0 9 21 54 79 54 101 9"/></symbol><symbol id="DownArrowColor1"><polygon id="polygon4171" fill="green" stroke="green" points="14 -10 0 -10 7 10 14 -10"/></symbol><symbol id="DownArrowColor2"><polygon id="polygon4174" fill="#000" stroke="#000" points="14 -10 0 -10 7 10 14 -10"/></symbol></defs><polygon style="fill:#e8e8e8;stroke:none" id="polygon4179" points="1320 -520 1320 40 -20 40 -20 40 -20 -520" transform="translate(30,530)"/><g id="node1" class="node" transform="translate(30,530)"><title id="title4182">q28</title><use id="use4184" width="100%" height="100%" x="1107" y="-455" xlink:href="#queue_symbol"/><text style="font-size:10px;font-family:Times,serif;text-anchor:start" id="text4186" x="1115" y="-460" font-size="10">q28</text></g><g id="node33" class="node" transform="translate(30,530)"><title id="title4189">a1</title><use id="use4191" width="100%" height="100%" x="1130" y="-325" xlink:href="#ArbiterLevel3"/><text style="font-size:10px;font-family:Times,serif;text-anchor:middle" id="text4193" x="1157" y="-308.5" font-size="10">User-18</text></g><g id="edge1" class="edge" transform="translate(30,530)"><title id="title4196">q28-&gt;a1</title><path style="fill:none;stroke:green" id="path4198" d="m 1127.59,-386.63 c 3.01,7.979 6.31,16.655 9.41,24.63 3.46,8.894 7.34,18.644 10.75,27.153"/><polygon style="fill:green;stroke:green" id="polygon4200" points="1144.51 -333.521 1151.01 -336.137 1151.01 -336.137 1151.5 -325.553"/></g><g id="node2" class="node" transform="translate(30,530)"><title id="title4203">q29</title><use id="use4205" width="100%" height="100%" x="1146" y="-455" xlink:href="#queue_symbol"/><text style="font-size:10px;font-family:Times,serif;text-anchor:middle" id="text4207" x="1154" y="-460" font-size="10">q29</text></g><g id="edge2" class="edge" transform="translate(30,530)"><title id="title4210">q29-&gt;a1</title><path style="fill:none;stroke:green" id="path4212" d="m 1157,-361.991 c 0,9.112 0,18.162 0,26.006"/><polygon style="fill:green;stroke:green" id="polygon4214" points="1153.5 -335.818 1160.5 -335.817 1160.5 -335.817 1157 -325.818"/></g><g id="node3" class="node" transform="translate(30,530)"><title id="title4217">q30</title><use id="use4219" width="100%" height="100%" x="1186" y="-455" xlink:href="#queue_symbol"/><text style="font-size:10px;font-family:Times,serif;text-anchor:middle" id="text4221" x="1194" y="-460" font-size="10">q30</text></g><g id="edge3" class="edge" transform="translate(30,530)"><title id="title4224">q30-&gt;a1</title><path style="fill:none;stroke:green" id="path4226" d="m 1186.49,-387.938 c -6.38,16.428 -14.44,37.176 -20.52,52.831"/><polygon style="fill:green;stroke:green" id="polygon4228" points="1162.66 -336.24 1169.18 -333.706 1169.18 -333.706 1162.3 -325.651"/></g><g id="node4" class="node" transform="translate(30,530)"><title id="title4231">q31</title><use id="use4233" width="100%" height="100%" x="1226" y="-455" xlink:href="#queue_symbol"/><text style="font-size:10px;font-family:Times,serif;text-anchor:middle" id="text4235" x="1234" y="-460" font-size="10">q31</text></g><g id="edge4" class="edge" transform="translate(30,530)"><title id="title4238">q31-&gt;a1</title><path style="fill:none;stroke:green" id="path4240" d="m 1226.49,-381.191 c -2.86,6.676 -6.33,13.402 -10.49,19.191 -9.95,13.868 -24.57,26.294 -36.77,35.29"/><polygon style="fill:green;stroke:green" id="polygon4242" points="1177.02 -329.431 1181.06 -323.719 1181.06 -323.719 1170.88 -320.795"/></g><g id="node5" class="node" transform="translate(30,530)"><title id="title4245">q25</title><use id="use4247" width="100%" height="100%" x="988" y="-455" xlink:href="#queue_symbol"/><text style="font-size:10px;font-family:Times,serif;text-anchor:middle" id="text4249" x="996" y="-460" font-size="10">q25</text></g><g id="node34" class="node" transform="translate(30,530)"><title id="title4252">a2</title><use id="use4254" width="100%" height="100%" x="998" y="-325" xlink:href="#ArbiterLevel3"/><text style="font-size:10px;font-family:Times,serif;text-anchor:middle" id="text4256" x="1025" y="-308.5" font-size="10">User-16</text></g><g id="edge5" class="edge" transform="translate(30,530)"><title id="title4259">q25-&gt;a2</title><path style="fill:none;stroke:green" id="path4261" d="m 1007.51,-376.354 c 3.74,13.775 7.84,28.861 11.13,40.962"/><polygon style="fill:green;stroke:green" id="polygon4263" points="1015.29 -334.366 1022.05 -336.202 1022.05 -336.202 1021.29 -325.634"/></g><g id="node6" class="node" transform="translate(30,530)"><title id="title4266">q26</title><use id="use4268" width="100%" height="100%" x="1030" y="-455" xlink:href="#queue_symbol"/><text style="font-size:10px;font-family:Times,serif;text-anchor:middle" id="text4270" x="1038" y="-460" font-size="10">q26</text></g><g id="edge6" class="edge" transform="translate(30,530)"><title id="title4273">q26-&gt;a2</title><path style="fill:none;stroke:green" id="path4275" d="m 1030.82,-361.991 c -1.06,9.112 -2.11,18.162 -3.03,26.006"/><polygon style="fill:green;stroke:green" id="polygon4277" points="1024.29 -336.155 1031.24 -335.345 1031.24 -335.345 1026.61 -325.818"/></g><g id="node7" class="node" transform="translate(30,530)"><title id="title4280">q27</title><use id="use4282" width="100%" height="100%" x="1071" y="-455" xlink:href="#queue_symbol"/><text style="font-size:10px;font-family:Times,serif;text-anchor:middle" id="text4284" x="1079" y="-460" font-size="10">q27</text></g><g id="node35" class="node" transform="translate(30,530)"><title id="title4287">a3</title><use id="use4289" width="100%" height="100%" x="1059" y="-325" xlink:href="#ArbiterLevel3"/><text style="font-size:10px;font-family:Times,serif;text-anchor:middle" id="text4291" x="1086" y="-308.5" font-size="10">User-17</text></g><g id="edge7" class="edge" transform="translate(30,530)"><title id="title4294">q27-&gt;a3</title><path style="fill:none;stroke:green" id="path4296" d="m 1081.63,-361.991 c 0.8,9.112 1.59,18.162 2.27,26.006"/><polygon style="fill:green;stroke:green" id="polygon4298" points="1080.44 -335.475 1087.41 -336.084 1087.41 -336.084 1084.79 -325.818"/></g><g id="node8" class="node" transform="translate(30,530)"><title id="title4301">q32</title><use id="use4303" width="100%" height="100%" x="1267" y="-455" xlink:href="#queue_symbol"/><text style="font-size:10px;font-family:Times,serif;text-anchor:middle" id="text4305" x="1274" y="-460" font-size="10">q32</text></g><g id="node36" class="node" transform="translate(30,530)"><title id="title4308">a4</title><use id="use4310" width="100%" height="100%" x="1220" y="-325" xlink:href="#ArbiterLevel3"/><text style="font-size:10px;font-family:Times,serif;text-anchor:middle" id="text4312" x="1247" y="-308.5" font-size="10">User-19</text></g><g id="edge8" class="edge" transform="translate(30,530)"><title id="title4315">q32-&gt;a4</title><path style="fill:none;stroke:green" id="path4317" d="m 1266.42,-378.686 c -4.19,14.389 -8.88,30.515 -12.61,43.305"/><polygon style="fill:green;stroke:green" id="polygon4319" points="1250.38 -336.114 1257.1 -334.156 1257.1 -334.156 1250.94 -325.534"/></g><g id="node9" class="node" transform="translate(30,530)"><title id="title4322">q16</title><use id="use4324" width="100%" height="100%" x="628" y="-455" xlink:href="#queue_symbol"/><text style="font-size:10px;font-family:Times,serif;text-anchor:middle" id="text4326" x="636" y="-460" font-size="10">q16</text></g><g id="node37" class="node" transform="translate(30,530)"><title id="title4329">a5</title><use id="use4331" width="100%" height="100%" x="648" y="-325" xlink:href="#ArbiterLevel3"/><text style="font-size:10px;font-family:Times,serif;text-anchor:middle" id="text4333" x="675" y="-308.5" font-size="10">User-11</text></g><g id="edge9" class="edge" transform="translate(30,530)"><title id="title4336">q16-&gt;a5</title><path style="fill:none;stroke:green" id="path4338" d="m 647.585,-386.309 c 5.924,16.057 13.216,35.821 18.789,50.929"/><polygon style="fill:green;stroke:green" id="polygon4340" points="663.176 -333.938 669.743 -336.361 669.743 -336.361 669.921 -325.767"/></g><g id="node10" class="node" transform="translate(30,530)"><title id="title4343">q17</title><use id="use4345" width="100%" height="100%" x="670" y="-455" xlink:href="#queue_symbol"/><text style="font-size:10px;font-family:Times,serif;text-anchor:middle" id="text4347" x="677" y="-460" font-size="10">q17</text></g><g id="edge10" class="edge" transform="translate(30,530)"><title id="title4350">q17-&gt;a5</title><path style="fill:none;stroke:green" id="path4352" d="m 675.971,-361.991 c -0.177,9.112 -0.353,18.162 -0.505,26.006"/><polygon style="fill:green;stroke:green" id="polygon4354" points="671.963 -335.884 678.962 -335.748 678.962 -335.748 675.268 -325.818"/></g><g id="node11" class="node" transform="translate(30,530)"><title id="title4357">q18</title><use id="use4359" width="100%" height="100%" x="712" y="-455" xlink:href="#queue_symbol"/><text style="font-size:10px;font-family:Times,serif;text-anchor:middle" id="text4361" x="717" y="-460" font-size="10">q18</text></g><g id="node38" class="node" transform="translate(30,530)"><title id="title4364">a6</title><use id="use4366" width="100%" height="100%" x="709" y="-325" xlink:href="#ArbiterLevel3"/><text style="font-size:10px;font-family:Times,serif;text-anchor:middle" id="text4368" x="736" y="-308.5" font-size="10">User-12</text></g><g id="edge11" class="edge" transform="translate(30,530)"><title id="title4371">q18-&gt;a6</title><path style="fill:none;stroke:green" id="path4373" d="m 726.778,-361.991 c 1.701,9.217 3.389,18.37 4.847,26.276"/><polygon style="fill:green;stroke:green" id="polygon4375" points="728.195 -335.017 735.079 -336.287 735.079 -336.287 733.451 -325.818"/></g><g id="node12" class="node" transform="translate(30,530)"><title id="title4378">q19</title><use id="use4380" width="100%" height="100%" x="750" y="-455" xlink:href="#queue_symbol"/><text style="font-size:10px;font-family:Times,serif;text-anchor:middle" id="text4382" x="758" y="-460" font-size="10">q19</text></g><g id="edge12" class="edge" transform="translate(30,530)"><title id="title4385">q19-&gt;a6</title><path style="fill:none;stroke:green" id="path4387" d="m 746.438,-363.198 c -1.96,9.613 -3.917,19.213 -5.598,27.459"/><polygon style="fill:green;stroke:green" id="polygon4389" points="737.38 -336.29 744.239 -334.892 744.239 -334.892 738.812 -325.793"/></g><g id="node13" class="node" transform="translate(30,530)"><title id="title4392">q20</title><use id="use4394" width="100%" height="100%" x="792" y="-455" xlink:href="#queue_symbol"/><text style="font-size:10px;font-family:Times,serif;text-anchor:middle" id="text4396" x="797" y="-460" font-size="10">q20</text></g><g id="node39" class="node" transform="translate(30,530)"><title id="title4399">a7</title><use id="use4401" width="100%" height="100%" x="770" y="-325" xlink:href="#ArbiterLevel3"/><text style="font-size:10px;font-family:Times,serif;text-anchor:middle" id="text4403" x="797" y="-308.5" font-size="10">User-13</text></g><g id="edge13" class="edge" transform="translate(30,530)"><title id="title4406">q20-&gt;a7</title><path style="fill:none;stroke:green" id="path4408" d="m 797,-361.991 c 0,9.112 0,18.162 0,26.006"/><polygon style="fill:green;stroke:green" id="polygon4410" points="793.5 -335.818 800.5 -335.817 800.5 -335.817 797 -325.818"/></g><g id="node14" class="node" transform="translate(30,530)"><title id="title4413">q21</title><use id="use4415" width="100%" height="100%" x="832" y="-455" xlink:href="#queue_symbol"/><text style="font-size:10px;font-family:Times,serif;text-anchor:middle" id="text4417" x="837" y="-460" font-size="10">q21</text></g><g id="node40" class="node" transform="translate(30,530)"><title id="title4420">a8</title><use id="use4422" width="100%" height="100%" x="834" y="-325" xlink:href="#ArbiterLevel3"/><text style="font-size:10px;font-family:Times,serif;text-anchor:middle" id="text4424" x="861" y="-308.5" font-size="10">User-14</text></g><g id="edge14" class="edge" transform="translate(30,530)"><title id="title4427">q21-&gt;a8</title><path style="fill:none;stroke:green" id="path4429" d="m 847.527,-369.823 c 2.767,11.875 5.64,24.205 8.018,34.413"/><polygon style="fill:green;stroke:green" id="polygon4431" points="852.142 -334.593 858.959 -336.181 858.959 -336.181 857.82 -325.648"/></g><g id="node15" class="node" transform="translate(30,530)"><title id="title4434">q22</title><use id="use4436" width="100%" height="100%" x="870" y="-455" xlink:href="#queue_symbol"/><text style="font-size:10px;font-family:Times,serif;text-anchor:middle" id="text4438" x="878" y="-460" font-size="10">q22</text></g><g id="edge15" class="edge" transform="translate(30,530)"><title id="title4441">q22-&gt;a8</title><path style="fill:none;stroke:green" id="path4443" d="m 868.766,-361.991 c -1.432,9.217 -2.854,18.37 -4.082,26.276"/><polygon style="fill:green;stroke:green" id="polygon4445" points="861.223 -336.236 868.14 -335.162 868.14 -335.162 863.146 -325.818"/></g><g id="node16" class="node" transform="translate(30,530)"><title id="title4448">q23</title><use id="use4450" width="100%" height="100%" x="910" y="-455" xlink:href="#queue_symbol"/><text style="font-size:10px;font-family:Times,serif;text-anchor:middle" id="text4452" x="917" y="-460" font-size="10">q23</text></g><g id="node41" class="node" transform="translate(30,530)"><title id="title4455">a9</title><use id="use4457" width="100%" height="100%" x="895" y="-325" xlink:href="#ArbiterLevel3"/><text style="font-size:10px;font-family:Times,serif;text-anchor:middle" id="text4459" x="922" y="-308.5" font-size="10">User-15</text></g><g id="edge16" class="edge" transform="translate(30,530)"><title id="title4462">q23-&gt;a9</title><path style="fill:none;stroke:green" id="path4464" d="m 919.573,-361.991 c 0.443,9.112 0.882,18.162 1.263,26.006"/><polygon style="fill:green;stroke:green" id="polygon4466" points="917.348 -335.636 924.34 -335.976 924.34 -335.976 921.329 -325.818"/></g><g id="node17" class="node" transform="translate(30,530)"><title id="title4469">q24</title><use id="use4471" width="100%" height="100%" x="948" y="-455" xlink:href="#queue_symbol"/><text style="font-size:10px;font-family:Times,serif;text-anchor:middle" id="text4473" x="956" y="-460" font-size="10">q24</text></g><g id="edge17" class="edge" transform="translate(30,530)"><title id="title4476">q24-&gt;a9</title><path style="fill:none;stroke:green" id="path4478" d="m 946.499,-384.097 c -5.315,15.64 -11.66,34.315 -16.562,48.739"/><polygon style="fill:green;stroke:green" id="polygon4480" points="926.563 -336.305 933.19 -334.053 933.19 -334.053 926.659 -325.711"/></g><g id="node18" class="node" transform="translate(30,530)"><title id="title4483">q1</title><use id="use4485" width="100%" height="100%" x="12" y="-455" xlink:href="#queue_symbol"/><text style="font-size:10px;font-family:Times,serif;text-anchor:middle" id="text4487" x="20" y="-460" font-size="10">q1</text></g><g id="node42" class="node" transform="translate(30,530)"><title id="title4490">a10</title><use id="use4492" width="100%" height="100%" x="-6" y="-325" xlink:href="#ArbiterLevel3"/><text style="font-size:10px;font-family:Times,serif;text-anchor:middle" id="text4494" x="21" y="-308.5" font-size="10">User-1</text></g><g id="edge18" class="edge" transform="translate(30,530)"><title id="title4497">q1-&gt;a10</title><path style="fill:none;stroke:green" id="path4499" d="m 21,-361.991 c 0,9.112 0,18.162 0,26.006"/><polygon style="fill:green;stroke:green" id="polygon4501" points="17.5 -335.818 24.5 -335.817 24.5 -335.817 21 -325.818"/></g><g id="node19" class="node" transform="translate(30,530)"><title id="title4504">q2</title><use id="use4506" width="100%" height="100%" x="59" y="-455" xlink:href="#queue_symbol"/><text style="font-size:10px;font-family:Times,serif;text-anchor:middle" id="text4508" x="64" y="-460" font-size="10">q2</text></g><g id="node43" class="node" transform="translate(30,530)"><title id="title4511">a11</title><use id="use4513" width="100%" height="100%" x="55" y="-325" xlink:href="#ArbiterLevel3"/><text style="font-size:10px;font-family:Times,serif;text-anchor:middle" id="text4515" x="82" y="-308.5" font-size="10">User-2</text></g><g id="edge19" class="edge" transform="translate(30,530)"><title id="title4518">q2-&gt;a11</title><path style="fill:none;stroke:green" id="path4520" d="m 73.2636,-361.991 c 1.6109,9.217 3.2104,18.37 4.5921,26.276"/><polygon style="fill:green;stroke:green" id="polygon4522" points="74.416 -335.066 81.311 -336.271 81.311 -336.271 79.585 -325.818"/></g><g id="node20" class="node" transform="translate(30,530)"><title id="title4525">q3</title><use id="use4527" width="100%" height="100%" x="94" y="-455" xlink:href="#queue_symbol"/><text style="font-size:10px;font-family:Times,serif;text-anchor:start" id="text4529" x="99" y="-460" font-size="10">q3</text></g><g id="node44" class="node" transform="translate(30,530)"><title id="title4532">a12</title><use id="use4534" width="100%" height="100%" x="116" y="-325" xlink:href="#ArbiterLevel3"/><text style="font-size:10px;font-family:Times,serif;text-anchor:middle" id="text4536" x="143" y="-308.5" font-size="10">User-3</text></g><g id="edge20" class="edge" transform="translate(30,530)"><title id="title4539">q3-&gt;a12</title><path style="fill:none;stroke:green" id="path4541" d="m 114.575,-386.939 c 3.039,8.053 6.36,16.845 9.425,24.939 3.32,8.767 6.976,18.395 10.187,26.842"/><polygon style="fill:green;stroke:green" id="polygon4543" points="131.004 -333.681 137.547 -336.17 137.547 -336.17 137.83 -325.578"/></g><g id="node21" class="node" transform="translate(30,530)"><title id="title4546">q4</title><use id="use4548" width="100%" height="100%" x="137" y="-455" xlink:href="#queue_symbol"/><text style="font-size:10px;font-family:Times,serif;text-anchor:middle" id="text4550" x="144" y="-460" font-size="10">q4</text></g><g id="edge21" class="edge" transform="translate(30,530)"><title id="title4553">q4-&gt;a12</title><path style="fill:none;stroke:green" id="path4555" d="m 143.485,-361.991 c -0.088,9.112 -0.176,18.162 -0.252,26.006"/><polygon style="fill:green;stroke:green" id="polygon4557" points="139.731 -335.851 146.731 -335.783 146.731 -335.783 143.134 -325.818"/></g><g id="node22" class="node" transform="translate(30,530)"><title id="title4560">q5</title><use id="use4562" width="100%" height="100%" x="176" y="-455" xlink:href="#queue_symbol"/><text style="font-size:10px;font-family:Times,serif;text-anchor:middle" id="text4564" x="184" y="-460" font-size="10">q5</text></g><g id="node45" class="node" transform="translate(30,530)"><title id="title4567">a13</title><use id="use4569" width="100%" height="100%" x="186" y="-325" xlink:href="#ArbiterLevel3"/><text style="font-size:10px;font-family:Times,serif;text-anchor:middle" id="text4571" x="213" y="-308.5" font-size="10">User-4</text></g><g id="edge22" class="edge" transform="translate(30,530)"><title id="title4574">q5-&gt;a13</title><path style="fill:none;stroke:green" id="path4576" d="m 194.552,-377.523 c 3.933,13.969 8.285,29.428 11.775,41.821"/><polygon style="fill:green;stroke:green" id="polygon4578" points="203.059 -334.392 209.797 -336.289 209.797 -336.289 209.138 -325.715"/></g><g id="node23" class="node" transform="translate(30,530)"><title id="title4581">q6</title><use id="use4583" width="100%" height="100%" x="219" y="-455" xlink:href="#queue_symbol"/><text style="font-size:10px;font-family:Times,serif;text-anchor:middle" id="text4585" x="224" y="-460" font-size="10">q6</text></g><g id="edge23" class="edge" transform="translate(30,530)"><title id="title4588">q6-&gt;a13</title><path style="fill:none;stroke:green" id="path4590" d="m 218.339,-361.991 c -0.973,9.112 -1.94,18.162 -2.778,26.006"/><polygon style="fill:green;stroke:green" id="polygon4592" points="212.057 -336.133 219.018 -335.389 219.018 -335.389 214.476 -325.818"/></g><g id="node24" class="node" transform="translate(30,530)"><title id="title4595">q7</title><use id="use4597" width="100%" height="100%" x="259" y="-455" xlink:href="#queue_symbol"/><text style="font-size:10px;font-family:Times,serif;text-anchor:middle" id="text4599" x="264" y="-460" font-size="10">q7</text></g><g id="node46" class="node" transform="translate(30,530)"><title id="title4602">a14</title><use id="use4604" width="100%" height="100%" x="247" y="-325" xlink:href="#ArbiterLevel3"/><text style="font-size:10px;font-family:Times,serif;text-anchor:middle" id="text4606" x="274" y="-308.5" font-size="10">User-5</text></g><g id="edge24" class="edge" transform="translate(30,530)"><title id="title4609">q7-&gt;a14</title><path style="fill:none;stroke:green" id="path4611" d="m 269.146,-361.991 c 0.885,9.112 1.764,18.162 2.525,26.006"/><polygon style="fill:green;stroke:green" id="polygon4613" points="268.208 -335.432 275.176 -336.109 275.176 -336.109 272.658 -325.818"/></g><g id="node25" class="node" transform="translate(30,530)"><title id="title4616">q8</title><use id="use4618" width="100%" height="100%" x="295" y="-455" xlink:href="#queue_symbol"/><text style="font-size:10px;font-family:Times,serif;text-anchor:middle" id="text4620" x="303" y="-460" font-size="10">q8</text></g><g id="edge25" class="edge" transform="translate(30,530)"><title id="title4623">q8-&gt;a14</title><path style="fill:none;stroke:green" id="path4625" d="m 293.423,-378.686 c -4.191,14.389 -8.888,30.515 -12.613,43.305"/><polygon style="fill:green;stroke:green" id="polygon4627" points="277.378 -336.114 284.099 -334.156 284.099 -334.156 277.942 -325.534"/></g><g id="node26" class="node" transform="translate(30,530)"><title id="title4630">q9</title><use id="use4632" width="100%" height="100%" x="339" y="-455" xlink:href="#queue_symbol"/><text style="font-size:10px;font-family:Times,serif;text-anchor:middle" id="text4634" x="344" y="-460" font-size="10">q9</text></g><g id="node47" class="node" transform="translate(30,530)"><title id="title4637">a15</title><use id="use4639" width="100%" height="100%" x="308" y="-325" xlink:href="#ArbiterLevel3"/><text style="font-size:10px;font-family:Times,serif;text-anchor:middle" id="text4641" x="335" y="-308.5" font-size="10">User-6</text></g><g id="edge26" class="edge" transform="translate(30,530)"><title id="title4644">q9-&gt;a15</title><path style="fill:none;stroke:green" id="path4646" d="m 339.368,-361.991 c -0.796,9.112 -1.587,18.162 -2.272,26.006"/><polygon style="fill:green;stroke:green" id="polygon4648" points="333.591 -336.084 340.565 -335.475 340.565 -335.475 336.207 -325.818"/></g><g id="node27" class="node" transform="translate(30,530)"><title id="title4651">q10</title><use id="use4653" width="100%" height="100%" x="389" y="-455" xlink:href="#queue_symbol"/><text style="font-size:10px;font-family:Times,serif;text-anchor:middle" id="text4655" x="396" y="-460" font-size="10">q10</text></g><g id="node48" class="node" transform="translate(30,530)"><title id="title4658">a16</title><use id="use4660" width="100%" height="100%" x="369" y="-325" xlink:href="#ArbiterLevel3"/><text style="font-size:10px;font-family:Times,serif;text-anchor:middle" id="text4662" x="396" y="-308.5" font-size="10">User-7</text></g><g id="edge27" class="edge" transform="translate(30,530)"><title id="title4665">q10-&gt;a16</title><path style="fill:none;stroke:green" id="path4667" d="m 396,-361.991 c 0,9.112 0,18.162 0,26.006"/><polygon style="fill:green;stroke:green" id="polygon4669" points="392.5 -335.818 399.5 -335.817 399.5 -335.817 396 -325.818"/></g><g id="node28" class="node" transform="translate(30,530)"><title id="title4672">q11</title><use id="use4674" width="100%" height="100%" x="432" y="-455" xlink:href="#queue_symbol"/><text style="font-size:10px;font-family:Times,serif;text-anchor:middle" id="text4676" x="437" y="-460" font-size="10">q11</text></g><g id="node49" class="node" transform="translate(30,530)"><title id="title4679">a17</title><use id="use4681" width="100%" height="100%" x="430" y="-325" xlink:href="#ArbiterLevel3"/><text style="font-size:10px;font-family:Times,serif;text-anchor:middle" id="text4683" x="457" y="-308.5" font-size="10">User-8</text></g><g id="edge28" class="edge" transform="translate(30,530)"><title id="title4686">q11-&gt;a17</title><path style="fill:none;stroke:green" id="path4688" d="m 447.293,-361.991 c 1.79,9.217 3.567,18.37 5.102,26.276"/><polygon style="fill:green;stroke:green" id="polygon4690" points="448.975 -334.967 455.847 -336.301 455.847 -336.301 454.317 -325.818"/></g><g id="node29" class="node" transform="translate(30,530)"><title id="title4693">q12</title><use id="use4695" width="100%" height="100%" x="468" y="-455" xlink:href="#queue_symbol"/><text style="font-size:10px;font-family:Times,serif;text-anchor:middle" id="text4697" x="476" y="-460" font-size="10">q12</text></g><g id="edge29" class="edge" transform="translate(30,530)"><title id="title4700">q12-&gt;a17</title><path style="fill:none;stroke:green" id="path4702" d="m 466.707,-361.991 c -1.79,9.217 -3.567,18.37 -5.102,26.276"/><polygon style="fill:green;stroke:green" id="polygon4704" points="458.153 -336.301 465.025 -334.967 465.025 -334.967 459.683 -325.818"/></g><g id="node30" class="node" transform="translate(30,530)"><title id="title4707">q13</title><use id="use4709" width="100%" height="100%" x="512" y="-455" xlink:href="#queue_symbol"/><text style="font-size:10px;font-family:Times,serif;text-anchor:middle" id="text4711" x="517" y="-460" font-size="10">q13</text></g><g id="node50" class="node" transform="translate(30,530)"><title id="title4714">a18</title><use id="use4716" width="100%" height="100%" x="491" y="-325" xlink:href="#ArbiterLevel3"/><text style="font-size:10px;font-family:Times,serif;text-anchor:middle" id="text4718" x="518" y="-308.5" font-size="10">User-9</text></g><g id="edge30" class="edge" transform="translate(30,530)"><title id="title4721">q13-&gt;a18</title><path style="fill:none;stroke:green" id="path4723" d="m 517.515,-361.991 c 0.088,9.112 0.176,18.162 0.252,26.006"/><polygon style="fill:green;stroke:green" id="polygon4725" points="514.269 -335.783 521.269 -335.851 521.269 -335.851 517.866 -325.818"/></g><g id="node31" class="node" transform="translate(30,530)"><title id="title4728">q14</title><use id="use4730" width="100%" height="100%" x="552" y="-455" xlink:href="#queue_symbol"/><text style="font-size:10px;font-family:Times,serif;text-anchor:middle" id="text4732" x="557" y="-460" font-size="10">q14</text></g><g id="node51" class="node" transform="translate(30,530)"><title id="title4735">a19</title><use id="use4737" width="100%" height="100%" x="552" y="-325" xlink:href="#ArbiterLevel3"/><text style="font-size:10px;font-family:Times,serif;text-anchor:middle" id="text4739" x="579" y="-308.5" font-size="10">User-10</text></g><g id="edge31" class="edge" transform="translate(30,530)"><title id="title4742">q14-&gt;a19</title><path style="fill:none;stroke:green" id="path4744" d="m 567.549,-365.612 c 2.226,10.425 4.478,20.964 6.388,29.908"/><polygon style="fill:green;stroke:green" id="polygon4746" points="570.562 -334.751 577.407 -336.213 577.407 -336.213 576.073 -325.703"/></g><g id="node32" class="node" transform="translate(30,530)"><title id="title4749">q15</title><use id="use4751" width="100%" height="100%" x="589" y="-455" xlink:href="#queue_symbol"/><text style="font-size:10px;font-family:Times,serif;text-anchor:middle" id="text4753" x="597" y="-460" font-size="10">q15</text></g><g id="edge32" class="edge" transform="translate(30,530)"><title id="title4756">q15-&gt;a19</title><path style="fill:none;stroke:green" id="path4758" d="m 587.736,-361.991 c -1.61,9.217 -3.21,18.37 -4.592,26.276"/><polygon style="fill:green;stroke:green" id="polygon4760" points="579.689 -336.271 586.584 -335.066 586.584 -335.066 581.415 -325.818"/></g><g id="node52" class="node" transform="translate(30,530)"><title id="title4763">b1</title><use id="use4765" width="100%" height="100%" x="1023" y="-260" xlink:href="#ArbiterLevel2"/><text style="font-size:12px;font-family:Times,serif;text-anchor:middle" id="text4767" x="1086" y="-238.9" font-size="12">Gold-C3</text></g><g id="edge33" class="edge" transform="translate(30,530)"><title id="title4770">a1-&gt;b1</title><path style="fill:none;stroke:#000" id="path4772" d="m 1142.63,-296.442 c -8.93,8.431 -20.67,19.511 -31.15,29.396"/><polygon style="fill:#000;stroke:#000" id="polygon4774" points="1109.01 -269.524 1113.81 -264.433 1113.81 -264.433 1104.14 -260.116"/></g><g id="edge34" class="edge" transform="translate(30,530)"><title id="title4777">a2-&gt;b1</title><path style="fill:none;stroke:#000" id="path4779" d="m 1037.34,-296.442 c 7.48,8.207 17.23,18.924 26.05,28.605"/><polygon style="fill:#000;stroke:#000" id="polygon4781" points="1060.87 -265.401 1066.05 -270.114 1066.05 -270.114 1070.19 -260.363"/></g><g id="edge35" class="edge" transform="translate(30,530)"><title id="title4784">a3-&gt;b1</title><path style="fill:none;stroke:#000" id="path4786" d="m 1086,-296.442 c 0,7.476 0,17.034 0,25.995"/><polygon style="fill:#000;stroke:#000" id="polygon4788" points="1082.5 -270.363 1089.5 -270.363 1089.5 -270.363 1086 -260.363"/></g><g id="edge36" class="edge" transform="translate(30,530)"><title id="title4791">a4-&gt;b1</title><path style="fill:none;stroke:#000" id="path4793" d="M 1237.26,-295.3 1138,-265"/><use id="use4795" width="100%" height="100%" x="1128" y="-272" transform="matrix(0.34202014,0.93969262,-0.93969262,0.34202014,497.13061,-1239.9761)" xlink:href="#DownArrowColor2"/></g><g id="node53" class="node" transform="translate(30,530)"><title id="title4798">b2</title><use id="use4800" width="100%" height="100%" x="675" y="-260" xlink:href="#ArbiterLevel2"/><text style="font-size:12px;font-family:Times,serif;text-anchor:middle" id="text4802" x="736" y="-238.9" font-size="12">Bronze-C3</text></g><g id="edge37" class="edge" transform="translate(30,530)"><title id="title4805">a5-&gt;b2</title><path style="fill:none;stroke:#000" id="path4807" d="m 687.344,-296.442 c 7.472,8.207 17.229,18.924 26.043,28.605"/><polygon style="fill:#000;stroke:#000" id="polygon4809" points="710.872 -265.401 716.048 -270.114 716.048 -270.114 720.192 -260.363"/></g><g id="edge38" class="edge" transform="translate(30,530)"><title id="title4812">a6-&gt;b2</title><path style="fill:none;stroke:#000" id="path4814" d="m 736,-296.442 c 0,7.476 0,17.034 0,25.995"/><polygon style="fill:#000;stroke:#000" id="polygon4816" points="732.5 -270.363 739.5 -270.363 739.5 -270.363 736 -260.363"/></g><g id="edge39" class="edge" transform="translate(30,530)"><title id="title4819">a7-&gt;b2</title><path style="fill:none;stroke:#000" id="path4821" d="m 784.656,-296.442 c -7.472,8.207 -17.229,18.924 -26.043,28.605"/><polygon style="fill:#000;stroke:#000" id="polygon4823" points="755.952 -270.114 761.128 -265.401 761.128 -265.401 751.808 -260.363"/></g><g id="node54" class="node" transform="translate(30,530)"><title id="title4826">b3</title><use id="use4828" width="100%" height="100%" x="807" y="-260" xlink:href="#ArbiterLevel2"/><text style="font-size:12px;font-family:Times,serif;text-anchor:middle" id="text4830" x="865" y="-238.9" font-size="12">Silver-C3</text></g><g id="edge40" class="edge" transform="translate(30,530)"><title id="title4833">a8-&gt;b3</title><path style="fill:none;stroke:#000" id="path4835" d="m 861.809,-296.442 c 0.447,7.476 1.017,17.034 1.552,25.995"/><polygon style="fill:#000;stroke:#000" id="polygon4837" points="859.874 -270.137 866.861 -270.554 866.861 -270.554 863.963 -260.363"/></g><g id="edge41" class="edge" transform="translate(30,530)"><title id="title4840">a9-&gt;b3</title><path style="fill:none;stroke:#000" id="path4842" d="m 920,-297 -11,28"/><use id="use4844" width="100%" height="100%" x="901.5" y="-271" transform="matrix(0.95105652,0.30901699,-0.30901699,0.95105652,-38.375871,-293.70428)" xlink:href="#DownArrowColor2"/></g><g id="node55" class="node" transform="translate(30,530)"><title id="title4847">b4</title><use id="use4849" width="100%" height="100%" x="57" y="-260" xlink:href="#ArbiterLevel2"/><text style="font-size:12px;font-family:Times,serif;text-anchor:middle" id="text4851" x="111" y="-238.9" font-size="12">Regular-C1</text></g><g id="edge42" class="edge" transform="translate(30,530)"><title id="title4854">a10-&gt;b4</title><path style="fill:none;stroke:#000" id="path4856" d="m 39.2128,-296.442 c 11.6548,8.677 27.0787,20.159 40.6419,30.256"/><polygon style="fill:#000;stroke:#000" id="polygon4858" points="77.898 -263.28 82.078 -268.895 82.078 -268.895 88.009 -260.116"/></g><g id="edge43" class="edge" transform="translate(30,530)"><title id="title4861">a11-&gt;b4</title><path style="fill:none;stroke:#000" id="path4863" d="m 87.8686,-296.442 c 3.3411,7.72 7.6436,17.66 11.6299,26.87"/><polygon style="fill:#000;stroke:#000" id="polygon4865" points="96.3 -268.15 102.724 -270.931 102.724 -270.931 103.485 -260.363"/></g><g id="edge44" class="edge" transform="translate(30,530)"><title id="title4868">a12-&gt;b4</title><path style="fill:none;stroke:#000" id="path4870" d="m 136.524,-296.442 c -3.686,7.72 -8.434,17.66 -12.833,26.87"/><polygon style="fill:#000;stroke:#000" id="polygon4872" points="120.444 -270.895 126.761 -267.878 126.761 -267.878 119.293 -260.363"/></g><g id="node56" class="node" transform="translate(30,530)"><title id="title4875">b5</title><use id="use4877" width="100%" height="100%" x="217" y="-260" xlink:href="#ArbiterLevel2"/><text style="font-size:12px;font-family:Times,serif;text-anchor:middle" id="text4879" x="274" y="-238.9" font-size="12">Premium-C1</text></g><g id="edge45" class="edge" transform="translate(30,530)"><title id="title4882">a13-&gt;b5</title><path style="fill:none;stroke:#000" id="path4884" d="m 225.344,-296.442 c 7.472,8.207 17.229,18.924 26.043,28.605"/><polygon style="fill:#000;stroke:#000" id="polygon4886" points="248.872 -265.401 254.048 -270.114 254.048 -270.114 258.192 -260.363"/></g><g id="edge46" class="edge" transform="translate(30,530)"><title id="title4889">a14-&gt;b5</title><path style="fill:none;stroke:#000" id="path4891" d="m 274,-296.442 c 0,7.476 0,17.034 0,25.995"/><polygon style="fill:#000;stroke:#000" id="polygon4893" points="270.5 -270.363 277.5 -270.363 277.5 -270.363 274 -260.363"/></g><g id="edge47" class="edge" transform="translate(30,530)"><title id="title4896">a15-&gt;b5</title><path style="fill:none;stroke:#000" id="path4898" d="m 322.656,-296.442 c -7.472,8.207 -17.229,18.924 -26.043,28.605"/><polygon style="fill:#000;stroke:#000" id="polygon4900" points="293.952 -270.114 299.128 -265.401 299.128 -265.401 289.808 -260.363"/></g><g id="node57" class="node" transform="translate(30,530)"><title id="title4903">b6</title><use id="use4905" width="100%" height="100%" x="366" y="-260" xlink:href="#ArbiterLevel2"/><text style="font-size:12px;font-family:Times,serif;text-anchor:middle" id="text4907" x="427" y="-238.9" font-size="12">Normal-C2</text></g><g id="edge48" class="edge" transform="translate(30,530)"><title id="title4910">a16-&gt;b6</title><path style="fill:none;stroke:#000" id="path4912" d="m 402.273,-296.442 c 3.572,7.72 8.171,17.66 12.432,26.87"/><polygon style="fill:#000;stroke:#000" id="polygon4914" points="411.591 -267.969 417.944 -270.908 417.944 -270.908 418.966 -260.363"/></g><g id="edge49" class="edge" transform="translate(30,530)"><title id="title4917">a17-&gt;b6</title><path style="fill:none;stroke:#000" id="path4919" d="m 450.929,-296.442 c -3.456,7.72 -7.907,17.66 -12.031,26.87"/><polygon style="fill:#000;stroke:#000" id="polygon4921" points="435.667 -270.92 442.056 -268.06 442.056 -268.06 434.775 -260.363"/></g><g id="node58" class="node" transform="translate(30,530)"><title id="title4924">b7</title><use id="use4926" width="100%" height="100%" x="502" y="-260" xlink:href="#ArbiterLevel2"/><text style="font-size:12px;font-family:Times,serif;text-anchor:middle" id="text4928" x="559" y="-238.9" font-size="12">Turbo-C2</text></g><g id="edge50" class="edge" transform="translate(30,530)"><title id="title4931">a18-&gt;b7</title><path style="fill:none;stroke:#000" id="path4933" d="m 526.297,-296.442 c 4.823,7.882 11.063,18.079 16.798,27.45"/><polygon style="fill:#000;stroke:#000" id="polygon4935" points="540.17 -267.066 546.141 -270.72 546.141 -270.72 548.375 -260.363"/></g><g id="edge51" class="edge" transform="translate(30,530)"><title id="title4938">a19-&gt;b7</title><path style="fill:none;stroke:#000" id="path4940" d="m 574.953,-296.442 c -2.256,7.557 -5.147,17.242 -7.847,26.287"/><polygon style="fill:#000;stroke:#000" id="polygon4942" points="563.69 -270.946 570.397 -268.944 570.397 -268.944 564.183 -260.363"/></g><g id="node59" class="node" transform="translate(30,530)"><title id="title4945">c3</title><use id="use4947" width="100%" height="100%" x="735" y="-179" xlink:href="#ArbiterLevel1"/><text style="font-size:12px;font-family:Times,serif;text-anchor:middle" id="text4949" x="785" y="-146" font-size="12">Company3</text></g><g id="edge52" class="edge" transform="translate(30,530)"><title id="title4952">b1-&gt;c3</title><path style="fill:none;stroke:green" id="path4954" d="M 1043,-227.072 845.759,-167.08"/><polygon style="fill:green;stroke:green" id="polygon4956" points="844.574 -170.377 846.633 -163.687 846.633 -163.687 836.046 -164.091"/></g><g id="edge53" class="edge" transform="translate(30,530)"><title id="title4959">b2-&gt;c3</title><path style="fill:none;stroke:green" id="path4961" d="M 748.644,-223.614 754,-177"/><use id="use4963" width="100%" height="100%" x="747" y="-181" transform="matrix(0.98480775,-0.17364818,0.17364818,0.98480775,42.190682,128.2417)" xlink:href="#DownArrowColor1"/></g><g id="edge54" class="edge" transform="translate(30,530)"><title id="title4966">b3-&gt;c3</title><path style="fill:none;stroke:green" id="path4968" d="M 852.158,-223.614 818,-177"/><use id="use4970" width="100%" height="100%" x="811" y="-181" transform="matrix(0.8660254,0.5,-0.5,0.8660254,21.09122,-432.7135)" xlink:href="#DownArrowColor1"/></g><g id="node60" class="node" transform="translate(30,530)"><title id="title4973">c1</title><use id="use4975" width="100%" height="100%" x="239" y="-179" xlink:href="#ArbiterLevel1"/><text style="font-size:12px;font-family:Times,serif;text-anchor:middle" id="text4977" x="289" y="-146" font-size="12">Company1</text></g><g id="edge55" class="edge" transform="translate(30,530)"><title id="title4980">b4-&gt;c1</title><path style="fill:none;stroke:green" id="path4982" d="m 142.815,-223.824 c 25.221,13.617 60.708,32.775 88.415,47.733"/><polygon style="fill:green;stroke:green" id="polygon4984" points="229.839 -172.864 233.164 -179.024 233.164 -179.024 240.301 -171.193"/></g><g id="edge56" class="edge" transform="translate(30,530)"><title id="title4987">b5-&gt;c1</title><path style="fill:none;stroke:green" id="path4989" d="M 274,-223.614 274,-180"/><use id="use4991" width="100%" height="100%" x="267" y="-180" xlink:href="#DownArrowColor1"/></g><g id="node61" class="node" transform="translate(30,530)"><title id="title4994">c2</title><use id="use4996" width="100%" height="100%" x="443" y="-179" xlink:href="#ArbiterLevel1"/><text style="font-size:12px;font-family:Times,serif;text-anchor:middle" id="text4998" x="493" y="-146" font-size="12">Company2</text></g><g id="edge57" class="edge" transform="translate(30,530)"><title id="title5001">b6-&gt;c2</title><path style="fill:none;stroke:green" id="path5003" d="M 440.039,-223.614 478,-176"/><use id="use5005" width="100%" height="100%" x="471" y="-180" transform="matrix(0.76604444,-0.64278761,0.64278761,0.76604444,224.96138,266.0763)" xlink:href="#DownArrowColor1"/></g><g id="edge58" class="edge" transform="translate(30,530)"><title id="title5008">b7-&gt;c2</title><path style="fill:none;stroke:green" id="path5010" d="M 545.961,-223.614 523,-178"/><use id="use5012" width="100%" height="100%" x="515" y="-180" transform="matrix(0.8660254,0.5,-0.5,0.8660254,-17.931286,-285.07953)" xlink:href="#DownArrowColor1"/></g><g id="node62" class="node" transform="translate(30,530)"><title id="title5015">o1</title><circle style="fill:#80c0f0;stroke:#000" id="ellipse5017" cx="493" cy="-40" r="36"/><circle style="fill:none;stroke:#000" id="ellipse5019" cx="493" cy="-40" r="40"/><text style="font-size:12px;font-family:Times,serif;text-anchor:middle" id="text5021" x="493" y="-36.9" font-size="12">xgbe1</text></g><g id="edge59" class="edge" transform="translate(30,530)"><title id="title5024">c3-&gt;o1</title><path style="fill:none;stroke:#000" id="path5026" d="M 752.014,-133.24 540.051,-57.8586"/><polygon style="fill:#000;stroke:#000" id="polygon5028" points="538.861 -61.15 541.222 -54.56 541.222 -54.56 530.627 -54.482"/></g><g id="edge60" class="edge" transform="translate(30,530)"><title id="title5031">c1-&gt;o1</title><path style="fill:none;stroke:#000" id="path5033" d="m 319.91,-127.94 c 37.809,18.991 91.099,45.7574 128.533,64.56"/><polygon style="fill:#000;stroke:#000" id="polygon5035" points="447.093 -60.142 450.235 -66.397 450.235 -66.397 457.6 -58.781"/></g><g id="edge61" class="edge" transform="translate(30,530)"><title id="title5038">c3-&gt;o1</title><path style="fill:none;stroke:#000" id="path5040" d="m 493,-125 0,34.384"/><polygon style="fill:#000;stroke:#000" id="polygon5042" points="489.5 -90.356 496.5 -90.356 496.5 -90.356 493 -80.356"/></g></svg>