<svg xmlns="http://www.w3.org/2000/svg" xmlns:svg="http://www.w3.org/2000/svg" id="Layer_1" width="190" height="49" data-name="Layer 1" version="1.1" viewBox="0 0 190 49"><metadata id="metadata71"/><defs id="defs3"><style id="style5">.cls-1{font-size:44.31px;fill:gray;font-family:Squada One}.cls-2,.cls-4{fill:#333}.cls-8{fill:#009645}.cls-4,.cls-5,.cls-9{stroke:#ffe817;stroke-miterlimit:10;stroke-width:4px}.cls-5{fill:none}.cls-6,.cls-9{fill:#666}.cls-7{fill:#1a1a1a}</style></defs><title id="title7">OpenDataPlane-branding_ODP Logo</title><g id="g4462" transform="matrix(0.32035335,0,0,0.32660788,-0.15849903,0.00353742)"><text id="text9" class="cls-1" transform="translate(531.29,127.66)" style="font-size:44.31000137px;font-family:'Squada One';fill:gray">.org</text><rect id="rect11" width="114.8" height="114.8" x="45.29" y="46.51" class="cls-2" rx="14.91" ry="14.91" transform="matrix(0.70710678,-0.70710678,0.70710678,0.70710678,-70.58,74.14)" style="fill:#333"/><path id="path13" d="m 102.15,104 0,74.9 0.14,0 c 3.61,-0.15 8.18,-1.58 10.93,-4.34 l 60.1,-60.09 a 14.84,14.84 0 0 0 4.34,-9.92 l 0,-0.53 -75.51,0 z" class="cls-2" transform="translate(-27.18,-28.91)" style="fill:#333"/><path style="fill:#0ff" id="path15" d="m 102.15,104 0,-75 0.14,0 c 3.61,0.15 8.18,1.58 10.93,4.34 l 60.1,60.09 a 15,15 0 0 1 4.34,10 l 0,0.58 -75.51,0 z" transform="translate(-27.18,-28.91)"/><path style="fill:#0ff" id="path17" d="m 102.15,104 0,74.9 0.15,0 c -3.61,-0.15 -8,-1.58 -10.79,-4.34 l -60,-60.09" transform="translate(-27.18,-28.91)"/><path id="path19" d="m 102.15,104 0,-75 0.15,0 c -3.61,0.15 -8,1.58 -10.79,4.34 l -60,60.09" class="cls-2" transform="translate(-27.18,-28.91)" style="fill:#333"/><path id="path23" d="M 102.23,49.19 48.4,103.54 102.75,157.37 156.58,103 Z m 0.38,78.91 -25.12,-24.88 24.88,-25.12 25.12,24.9 z" class="cls-4" transform="translate(-27.18,-28.91)" style="fill:#333;stroke:#ffe817;stroke-width:4px;stroke-miterlimit:10"/><rect id="rect25" width="35.36" height="35.36" x="84.81" y="85.42" class="cls-5" transform="matrix(0.70364278,-0.7105539,0.7105539,0.70364278,-70.07,74.46)" style="fill:none;stroke:#ffe817;stroke-width:4px;stroke-miterlimit:10"/><text id="text27" class="cls-1" transform="translate(531.29,127.66)" style="font-size:44.31000137px;font-family:'Squada One';fill:gray">.org</text><rect id="rect29" width="114.8" height="114.8" x="45.29" y="46.51" class="cls-2" rx="14.91" ry="14.91" transform="matrix(0.70710678,-0.70710678,0.70710678,0.70710678,-70.58,74.14)" style="fill:#333"/><path id="path31" d="m 102.15,104 0,74.9 0.14,0 c 3.61,-0.15 8.18,-1.58 10.93,-4.34 l 60.1,-60.09 a 14.84,14.84 0 0 0 4.34,-9.92 l 0,-0.53 -75.51,0 z" class="cls-6" transform="translate(-27.18,-28.91)" style="fill:#666"/><path id="path33" d="m 102.15,104 0,-75 0.14,0 c 3.61,0.15 8.18,1.58 10.93,4.34 l 60.1,60.09 a 15,15 0 0 1 4.34,10 l 0,0.58 -75.51,0 z" class="cls-7" transform="translate(-27.18,-28.91)" style="fill:#1a1a1a"/><path id="path35" d="m 102.15,104 0,74.9 0.15,0 c -3.61,-0.15 -8,-1.58 -10.79,-4.34 l -60,-60.09" class="cls-7" transform="translate(-27.18,-28.91)" style="fill:#1a1a1a"/><path id="path37" d="m 102.15,104 0,-75 0.15,0 c -3.61,0.15 -8,1.58 -10.79,4.34 l -60,60.09" class="cls-6" transform="translate(-27.18,-28.91)" style="fill:#666"/><path style="fill:#000;fill-opacity:0" id="path39" d="m 235.1,86.13 0,30.75 q 0,10.07 -9.46,10.07 l -10.15,0 Q 206,127 206,116.89 l 0,-30.76 q 0,-10.07 9.46,-10.07 l 10.15,0 q 9.49,0 9.49,10.07 z m -10.68,32 0,-33.3" class="cls-8" transform="translate(-27.18,-28.91)"/><path id="path41" d="m 260.67,127 -1.6,0" class="cls-8" transform="translate(-27.18,-28.91)" style="fill:#009645"/><path id="path65" d="M 102.23,49.19 48.4,103.54 102.75,157.37 156.58,103 Z m 0.38,78.91 -25.12,-24.88 24.88,-25.12 25.12,24.9 z" class="cls-9" transform="translate(-27.18,-28.91)" style="fill:#666;stroke:#ffe817;stroke-width:4px;stroke-miterlimit:10"/><rect id="rect67" width="35.36" height="35.36" x="84.81" y="85.42" class="cls-5" transform="matrix(0.70364278,-0.7105539,0.7105539,0.70364278,-70.07,74.46)" style="fill:none;stroke:#ffe817;stroke-width:4px;stroke-miterlimit:10"/><text id="text4199" x="174.922" y="81.8" transform="scale(0.92486289,1.0812414)" xml:space="preserve" style="font-style:normal;font-variant:normal;font-weight:400;font-stretch:normal;font-size:83.23766327px;line-height:125%;font-family:'Squada One';-inkscape-font-specification:'Squada One, Normal';text-align:start;letter-spacing:0;word-spacing:0;writing-mode:lr-tb;text-anchor:start;fill:#009645;fill-opacity:1;stroke:none;stroke-width:1px;stroke-linecap:butt;stroke-linejoin:miter;stroke-opacity:1"><tspan id="tspan4201" x="174.922" y="81.8">OpenDataPlane</tspan></text></g></svg>